<svg width="25" height="25" viewBox="0 0 25 25" fill="none" xmlns="http://www.w3.org/2000/svg">
<path d="M12.4999 3.79126C9.49532 3.79126 7.05078 6.2357 7.05078 9.24032C7.05078 12.2449 9.49532 14.6894 12.4999 14.6894C15.5046 14.6894 17.9491 12.2449 17.9491 9.24032C17.9491 6.2357 15.5046 3.79126 12.4999 3.79126ZM12.4999 13.2236C10.3035 13.2236 8.51645 11.4367 8.51645 9.24022C8.51645 7.04377 10.3035 5.25693 12.4999 5.25693C14.6964 5.25693 16.4834 7.04387 16.4834 9.24032C16.4834 11.4368 14.6965 13.2236 12.4999 13.2236Z" fill="white"/>
<path d="M12.4999 0C7.40487 0 3.25977 4.1451 3.25977 9.24016C3.25977 12.1785 5.72404 16.5563 7.19293 18.9042C8.1594 20.4489 9.19797 21.9191 10.1172 23.0437C11.5928 24.8488 12.1209 24.9999 12.5 24.9999C12.8848 24.9999 13.3834 24.8487 14.8544 23.0426C15.7757 21.9112 16.8148 20.442 17.7802 18.9054C19.2592 16.5517 21.7402 12.1661 21.7402 9.24006C21.7402 4.1451 17.5951 0 12.4999 0ZM16.7641 17.7642C14.8689 20.8404 13.129 22.9191 12.4912 23.4498C11.8501 22.9355 10.1384 20.9062 8.21675 17.7739C5.99802 14.1571 4.72553 11.0466 4.72553 9.24016C4.72543 4.95327 8.21304 1.46567 12.4999 1.46567C16.7868 1.46567 20.2744 4.95327 20.2744 9.24016C20.2745 11.0363 18.995 14.1431 16.7641 17.7642Z" fill="white"/>
</svg>
