<svg width="25" height="25" viewBox="0 0 25 25" fill="none" xmlns="http://www.w3.org/2000/svg">
<path d="M19.7578 15.4868C19.246 14.9539 18.6286 14.669 17.9743 14.669C17.3253 14.669 16.7027 14.9487 16.1698 15.4816L14.5024 17.1436C14.3653 17.0698 14.2281 17.0012 14.0962 16.9326C13.9062 16.8376 13.7268 16.7479 13.5738 16.6529C12.012 15.661 10.5926 14.3682 9.2313 12.6956C8.57175 11.8619 8.12853 11.1602 7.80667 10.4479C8.23934 10.0521 8.64035 9.64057 9.0308 9.24484C9.17854 9.0971 9.32628 8.94408 9.47402 8.79634C10.5821 7.6883 10.5821 6.25311 9.47402 5.14506L8.03356 3.7046C7.86999 3.54103 7.70114 3.37218 7.54285 3.20334C7.22626 2.8762 6.89385 2.53851 6.55088 2.22192C6.03907 1.71539 5.427 1.44629 4.78328 1.44629C4.13956 1.44629 3.51694 1.71539 2.9893 2.22192L2.97875 2.23248L1.18476 4.04229C0.50938 4.71767 0.124201 5.54079 0.0397781 6.49583C-0.086856 8.03654 0.366916 9.47173 0.71516 10.4109C1.56994 12.7167 2.84683 14.8537 4.75162 17.1436C7.0627 19.9032 9.84337 22.0824 13.0198 23.6178C14.2334 24.1929 15.8532 24.8736 17.663 24.9897C17.7738 24.995 17.8899 25.0002 17.9954 25.0002C19.2143 25.0002 20.2379 24.5623 21.0399 23.6917C21.0452 23.6811 21.0558 23.6759 21.061 23.6653C21.3354 23.3329 21.652 23.0321 21.9844 22.7103C22.2113 22.4939 22.4435 22.267 22.6704 22.0296C23.1927 21.4861 23.4671 20.853 23.4671 20.204C23.4671 19.5497 23.1874 18.9218 22.6545 18.3942L19.7578 15.4868ZM21.6467 21.0429C21.6414 21.0482 21.6414 21.0429 21.6467 21.0429C21.4409 21.2645 21.2299 21.465 21.003 21.6866C20.66 22.0138 20.3118 22.3567 19.9847 22.7419C19.4517 23.3118 18.8238 23.5809 18.0007 23.5809C17.9216 23.5809 17.8371 23.5809 17.758 23.5756C16.1909 23.4753 14.7346 22.8633 13.6424 22.3409C10.6559 20.8952 8.03356 18.8427 5.85439 16.2414C4.05514 14.0728 2.85211 12.0677 2.05537 9.91495C1.56466 8.60112 1.38527 7.57749 1.46441 6.61191C1.51718 5.99457 1.75462 5.48275 2.19256 5.04481L3.99182 3.24555C4.25036 3.00283 4.52474 2.87092 4.79383 2.87092C5.12625 2.87092 5.39535 3.07143 5.56419 3.24027L5.58002 3.2561C5.90188 3.55686 6.20791 3.86817 6.52978 4.20058C6.69335 4.36943 6.86219 4.53827 7.03104 4.7124L8.4715 6.15286C9.0308 6.71216 9.0308 7.22925 8.4715 7.78855C8.31848 7.94156 8.17074 8.09458 8.01773 8.24232C7.57451 8.69609 7.15239 9.11821 6.69335 9.52977C6.68279 9.54032 6.67224 9.5456 6.66696 9.55615C6.21319 10.0099 6.29761 10.4531 6.39259 10.7539L6.40842 10.8014C6.78304 11.7089 7.31069 12.5637 8.1127 13.5821L8.11798 13.5873C9.57427 15.3813 11.1097 16.7796 12.8034 17.8507C13.0198 17.9879 13.2414 18.0987 13.4524 18.2042C13.6424 18.2992 13.8218 18.3889 13.9748 18.4839C13.9959 18.4944 14.017 18.5102 14.0381 18.5208C14.2175 18.6105 14.3864 18.6527 14.5605 18.6527C14.9984 18.6527 15.2728 18.3783 15.3625 18.2886L17.167 16.4841C17.3464 16.3047 17.6314 16.0884 17.9638 16.0884C18.2909 16.0884 18.56 16.2941 18.7236 16.4735L18.7341 16.4841L21.6414 19.3914C22.1849 19.9296 22.1849 20.4836 21.6467 21.0429ZM13.5105 5.94708C14.8929 6.17924 16.1487 6.83352 17.1512 7.83604C18.1537 8.83856 18.8027 10.0943 19.0402 11.4768C19.0982 11.825 19.399 12.0677 19.7419 12.0677C19.7841 12.0677 19.8211 12.0624 19.8633 12.0572C20.2537 11.9939 20.5123 11.6245 20.449 11.2341C20.164 9.56143 19.3726 8.03654 18.1643 6.82824C16.956 5.61994 15.4311 4.82848 13.7585 4.54355C13.368 4.48023 13.0039 4.73878 12.9354 5.12396C12.8668 5.50913 13.12 5.88376 13.5105 5.94708ZM24.9709 11.0283C24.5013 8.27398 23.2033 5.76768 21.2088 3.77319C19.2143 1.7787 16.708 0.480705 13.9537 0.0111038C13.5685 -0.0574897 13.2044 0.206331 13.1359 0.59151C13.0725 0.981965 13.3311 1.34604 13.7215 1.41463C16.1804 1.83147 18.4228 2.99756 20.2063 4.77571C21.9897 6.55914 23.1505 8.80162 23.5673 11.2604C23.6254 11.6087 23.9261 11.8514 24.2691 11.8514C24.3113 11.8514 24.3483 11.8461 24.3905 11.8408C24.7756 11.7828 25.0395 11.4134 24.9709 11.0283Z" fill="white"/>
</svg>
