<svg width="25" height="25" viewBox="0 0 25 25" fill="none" xmlns="http://www.w3.org/2000/svg">
<path d="M12.5001 3.79126C9.49544 3.79126 7.0509 6.2357 7.0509 9.24032C7.0509 12.2449 9.49544 14.6894 12.5001 14.6894C15.5047 14.6894 17.9492 12.2449 17.9492 9.24032C17.9492 6.2357 15.5047 3.79126 12.5001 3.79126ZM12.5001 13.2236C10.3036 13.2236 8.51657 11.4367 8.51657 9.24022C8.51657 7.04377 10.3036 5.25693 12.5001 5.25693C14.6965 5.25693 16.4836 7.04387 16.4836 9.24032C16.4836 11.4368 14.6966 13.2236 12.5001 13.2236Z" fill="#FFA500"/>
<path d="M12.5 0C7.40499 0 3.25989 4.1451 3.25989 9.24016C3.25989 12.1785 5.72416 16.5563 7.19306 18.9042C8.15952 20.4489 9.19809 21.9191 10.1174 23.0437C11.5929 24.8488 12.121 24.9999 12.5001 24.9999C12.8849 24.9999 13.3836 24.8487 14.8545 23.0426C15.7758 21.9112 16.8149 20.442 17.7804 18.9054C19.2593 16.5517 21.7403 12.1661 21.7403 9.24006C21.7403 4.1451 17.5952 0 12.5 0ZM16.7643 17.7642C14.8691 20.8404 13.1291 22.9191 12.4913 23.4498C11.8503 22.9355 10.1386 20.9062 8.21688 17.7739C5.99815 14.1571 4.72565 11.0466 4.72565 9.24016C4.72556 4.95327 8.21316 1.46567 12.5 1.46567C16.7869 1.46567 20.2745 4.95327 20.2745 9.24016C20.2746 11.0363 18.9951 14.1431 16.7643 17.7642Z" fill="#FFA500"/>
</svg>
