<svg width="30" height="20" viewBox="0 0 30 20" fill="none" xmlns="http://www.w3.org/2000/svg">
<path d="M0 6.40371H30V0H0V6.40371ZM13.4877 1.13283L13.5828 0.802371L13.6762 1.13283H13.9814L13.7322 1.34061L13.8273 1.67166L13.5812 1.46563L13.3346 1.67166L13.4287 1.33944L13.1826 1.13283H13.4877ZM13.4867 3.05159L13.5828 2.72055L13.6773 3.05159H13.9814L13.7317 3.25703L13.8273 3.5869L13.5812 3.38381L13.3346 3.5869L13.4292 3.25644L13.1826 3.05218L13.4867 3.05159ZM13.4867 4.97447L13.5828 4.6399L13.6773 4.97447H13.9814L13.7317 5.1799L13.8273 5.50977L13.5812 5.3061L13.3346 5.50977L13.4292 5.17932L13.1826 4.97505L13.4867 4.97447ZM11.8059 1.13283L11.901 0.802371L11.9929 1.13283H12.2996L12.0525 1.33885L12.1465 1.67166L11.9004 1.46563L11.6523 1.67166L11.7474 1.33826L11.5018 1.13283H11.8059ZM11.8049 3.05159L11.901 2.72055L11.9939 3.05159H12.2996L12.0515 3.25586L12.146 3.58631L11.8999 3.38322L11.6518 3.58631L11.7474 3.25468L11.5013 3.05159H11.8049ZM11.8049 4.97447L11.901 4.6399L11.9939 4.97447H12.2996L12.052 5.17814L12.1465 5.50919L11.9004 5.3061L11.6508 5.50977L11.7463 5.17814L11.5003 4.97505L11.8049 4.97447ZM10.1267 1.13283L10.2197 0.802371L10.3147 1.13283H10.6224L10.3738 1.33768L10.4663 1.67166L10.2212 1.46505L9.9726 1.67166L10.0687 1.33826L9.82312 1.13283H10.1267ZM10.1262 3.05159L10.2197 2.72055L10.3157 3.05159H10.6224L10.3738 3.25409L10.4663 3.58631L10.2212 3.38322L9.9726 3.58631L10.0687 3.25468L9.82312 3.05159H10.1262ZM10.1257 4.97447L10.2197 4.6399L10.3157 4.97447H10.6224L10.3738 5.17697L10.4663 5.50919L10.2212 5.30551L9.9726 5.50919L10.0687 5.17756L9.82312 4.97447H10.1257ZM8.44492 3.05159L8.54098 2.72055L8.63446 3.05159H8.93959L8.692 3.25527L8.78446 3.58631L8.53995 3.38322L8.29389 3.58631L8.3879 3.25409L8.14184 3.05159H8.44492ZM8.44492 4.97447L8.54098 4.6399L8.63498 4.97447H8.93959L8.692 5.17814L8.78446 5.50919L8.53995 5.30551L8.29389 5.50919L8.3879 5.17697L8.14184 4.97447H8.44492ZM6.63522 4.97447H6.76621L6.79446 4.87586L6.86175 4.6399L6.90233 4.78371L6.95576 4.97447H7.25883L7.01329 5.17638L7.10729 5.50919L6.86072 5.30551L6.61313 5.50919L6.70867 5.17756L6.53608 5.03669L6.46108 4.97505L6.63522 4.97447ZM4.9 0.801785C5.32618 0.80193 5.74209 0.951262 6.09174 1.22968C6.01058 1.21676 5.93045 1.20092 5.84569 1.20092C5.61566 1.20107 5.38791 1.25299 5.17544 1.35372C4.96297 1.45445 4.76995 1.60201 4.60739 1.78798C4.44483 1.97395 4.31591 2.19468 4.22801 2.43757C4.1401 2.68047 4.09493 2.94077 4.09507 3.20362C4.09588 3.73332 4.28075 4.24097 4.60903 4.61497C4.9373 4.98898 5.38212 5.19872 5.84569 5.1981C5.92993 5.1981 6.01007 5.18342 6.09174 5.16992C5.77726 5.4186 5.40927 5.56431 5.02756 5.59131C4.64584 5.61831 4.26494 5.52557 3.92601 5.32311C3.58709 5.12065 3.30305 4.81618 3.1046 4.44262C2.90616 4.06905 2.80085 3.64061 2.80008 3.20362C2.80035 2.56711 3.02161 1.95673 3.41531 1.50644C3.809 1.05614 4.34296 0.802717 4.9 0.801785Z" fill="#4497B1"/>
<path d="M0 6.40356H30V6.8027H0V6.40356Z" fill="#BD1F34"/>
<path d="M0 6.80298H30V13.2008H0V6.80298Z" fill="#EEEEEE"/>
<path d="M0 13.2007H30V13.6004H0V13.2007Z" fill="#BD1F34"/>
<path d="M0 13.6003H30V19.9999H0V13.6003Z" fill="#50B648"/>
<path d="M4.89998 5.59661C5.34226 5.59661 5.75269 5.43755 6.09172 5.17048C6.01056 5.1834 5.93042 5.19866 5.84566 5.19866C5.38209 5.19928 4.93727 4.98954 4.609 4.61553C4.28072 4.24153 4.09586 3.73388 4.09504 3.20418C4.0949 2.94133 4.14008 2.68103 4.22798 2.43814C4.31589 2.19524 4.4448 1.97451 4.60736 1.78854C4.76992 1.60257 4.96294 1.45501 5.17541 1.35428C5.38788 1.25355 5.61563 1.20163 5.84566 1.20148C5.92991 1.20148 6.01004 1.21674 6.09172 1.23024C5.74206 0.951821 5.32615 0.80249 4.89998 0.802344C4.34285 0.803277 3.80881 1.05678 3.4151 1.5072C3.02139 1.95763 2.80018 2.56816 2.80005 3.20476C2.80127 3.84001 3.02312 4.44873 3.41686 4.89721C3.8106 5.34568 4.34403 5.59724 4.89998 5.59661ZM9.97155 1.67163L10.2202 1.46502L10.4652 1.67163L10.3727 1.33706L10.6219 1.1328H10.3142L10.2191 0.801758L10.1267 1.1328H9.82207L10.0671 1.33765L9.97155 1.67163ZM11.6508 1.67163L11.8994 1.46561L12.1454 1.67163L12.052 1.33824L12.299 1.1328H11.9929L11.9009 0.801758L11.8059 1.1328H11.5008L11.7458 1.33765L11.6508 1.67163ZM13.3336 1.67163L13.5802 1.46561L13.8262 1.67163L13.7312 1.34L13.9808 1.1328H13.6757L13.5822 0.801758L13.4877 1.1328H13.181L13.4271 1.33882L13.3336 1.67163ZM8.29284 3.58629L8.53941 3.38379L8.78341 3.58629L8.69146 3.25524L8.93905 3.05157H8.63392L8.54095 2.72052L8.44489 3.05157H8.14028L8.38684 3.25407L8.29284 3.58629ZM9.97155 3.58629L10.2202 3.38379L10.4652 3.58629L10.3727 3.25407L10.6219 3.05157H10.3152L10.2191 2.72052L10.1262 3.05157H9.82207L10.0671 3.25465L9.97155 3.58629ZM11.6508 3.58629L11.8994 3.38379L12.1454 3.58629L12.0514 3.25583L12.299 3.05157H11.9934L11.9009 2.72052L11.8049 3.05157H11.5008L11.7463 3.25465L11.6508 3.58629ZM13.3336 3.58629L13.5802 3.38379L13.8262 3.58629L13.7307 3.257L13.9808 3.05157H13.6767L13.5822 2.72052L13.4867 3.05157H13.181L13.4276 3.25583L13.3336 3.58629ZM6.70762 5.17753L6.61259 5.50975L6.86018 5.30607L7.10726 5.50975L7.01326 5.17635L7.2588 4.97444H6.95573L6.90179 4.78368L6.86121 4.63987L6.79392 4.87642L6.76618 4.97444H6.46003L6.53502 5.03666L6.70762 5.17753ZM8.29284 5.50975L8.53941 5.30607L8.78341 5.50975L8.69146 5.17811L8.93905 4.97444H8.63444L8.54095 4.63987L8.44489 4.97444H8.14028L8.38684 5.17694L8.29284 5.50975ZM9.97155 5.50975L10.2202 5.30607L10.4652 5.50975L10.3727 5.17694L10.6219 4.97444H10.3152L10.2191 4.63987L10.1257 4.97444H9.82207L10.0671 5.17753L9.97155 5.50975ZM11.6508 5.50975L11.8994 5.30666L12.1454 5.50975L12.0514 5.17811L12.299 4.97444H11.9934L11.9009 4.63987L11.8049 4.97444H11.5008L11.7463 5.17753L11.6508 5.50975ZM13.3336 5.50975L13.5802 5.30607L13.8262 5.50975L13.7307 5.17988L13.9808 4.97444H13.6767L13.5822 4.63987L13.4867 4.97444H13.181L13.4276 5.1787L13.3336 5.50975Z" fill="#EEEEEE"/>
</svg>
