<svg width="94" height="88" viewBox="0 0 94 88" fill="none" xmlns="http://www.w3.org/2000/svg">
<path d="M13.6594 67.1563C13.9719 67.625 14.2844 68.0938 14.6282 68.5203C15.9764 70.3001 17.5631 71.8858 19.3438 73.2328C19.7922 73.5828 20.2579 73.8984 20.7313 74.2203C23.4095 76.0121 26.4148 77.2582 29.575 77.8875C30.111 77.9844 30.6469 78.0813 31.1657 78.1422C32.2705 78.2958 33.3846 78.3735 34.5 78.375C35.6066 78.3744 36.7118 78.2977 37.8079 78.1453C38.3438 78.0828 38.8688 77.9891 39.4516 77.8828H39.4985C42.6378 77.2501 45.622 76.0062 48.2813 74.2219C48.75 73.9094 49.2188 73.5969 49.6454 73.2531C51.426 71.9035 53.0118 70.3146 54.3579 68.5313C54.7079 68.0813 55.0266 67.6156 55.3407 67.15C57.1367 64.4627 58.3845 61.4472 59.0125 58.2766C59.1094 57.7516 59.2032 57.225 59.2625 56.7141C59.5698 54.5091 59.5698 52.2722 59.2625 50.0672C59.1985 49.5266 59.1063 49 58.9985 48.4094V48.3766C58.3643 45.238 57.1211 42.2541 55.3391 39.5938C55.0266 39.125 54.7063 38.6563 54.3704 38.2297C53.0226 36.45 51.4364 34.8643 49.6563 33.5172C49.2079 33.1672 48.7422 32.8516 48.2688 32.5297C45.5906 30.7379 42.5853 29.4918 39.425 28.8625C38.8891 28.7656 38.3532 28.6688 37.8344 28.6078C35.6288 28.3024 33.3916 28.3024 31.186 28.6078C30.65 28.6703 30.125 28.7641 29.5422 28.8703H29.4954C26.3561 29.5031 23.3718 30.747 20.7125 32.5313C20.2438 32.8438 19.775 33.1563 19.3485 33.5C17.5703 34.8491 15.9866 36.437 14.6422 38.2188C14.2922 38.6688 13.9735 39.1344 13.6594 39.6C11.8634 42.2873 10.6156 45.3028 9.98755 48.4735C9.88781 48.9915 9.80443 49.5126 9.73755 50.036C9.43026 52.2409 9.43026 54.4779 9.73755 56.6828C9.80317 57.2235 9.8938 57.75 10.0016 58.3406V58.3735C10.6353 61.5119 11.878 64.4958 13.6594 67.1563ZM13.5391 59.625H19.411L15.2625 63.7656C14.5436 62.4501 13.9659 61.0622 13.5391 59.625ZM28.25 74.3375C26.8134 73.9114 25.4255 73.3353 24.1094 72.6188L28.25 68.4656V74.3375ZM40.75 74.3375V68.4656L44.8907 72.6125C43.5748 73.3313 42.187 73.9095 40.75 74.3375ZM53.7375 63.7656L49.5891 59.625H55.4625C55.0348 61.062 54.4566 62.4499 53.7375 63.7656ZM55.461 47.125H49.5891L53.7375 42.9844C54.4565 44.2999 55.0342 45.6879 55.461 47.125ZM40.75 32.4125C42.1867 32.8386 43.5745 33.4147 44.8907 34.1313L40.75 38.2844V32.4125ZM28.25 32.4125V38.2844L24.111 34.1375C25.4258 33.4178 26.8133 32.8396 28.25 32.4125ZM21.2563 35.9828C21.311 35.9422 21.3672 35.9078 21.4204 35.8672L28.7063 43.1656C28.9246 43.3845 29.203 43.5337 29.5062 43.5944C29.8094 43.655 30.1237 43.6243 30.4094 43.5062C30.6951 43.3881 30.9394 43.1879 31.1113 42.9309C31.2832 42.6739 31.375 42.3717 31.375 42.0625V31.7391C31.45 31.7281 31.5141 31.7141 31.5907 31.7047C32.5546 31.5695 33.5267 31.5011 34.5 31.5C34.7157 31.5 34.9344 31.5156 35.1516 31.5235C35.9184 31.5442 36.6835 31.6057 37.4438 31.7078C37.5063 31.7156 37.5641 31.7297 37.6266 31.7375V42.0625C37.6267 42.3717 37.7185 42.6739 37.8903 42.9309C38.0622 43.1879 38.3065 43.3881 38.5922 43.5062C38.878 43.6243 39.1923 43.655 39.4955 43.5944C39.7986 43.5337 40.077 43.3845 40.2954 43.1656L47.5782 35.875C47.6391 35.9203 47.7 35.9563 47.7594 36.0031C49.3204 37.1855 50.7111 38.5772 51.8922 40.1391C51.9344 40.1922 51.9688 40.25 52.0094 40.3031L44.7094 47.5891C44.4932 47.8078 44.3463 48.0855 44.2872 48.3874C44.2281 48.6892 44.2595 49.0018 44.3772 49.2859C44.495 49.57 44.6941 49.8131 44.9494 49.9846C45.2047 50.1561 45.505 50.2484 45.8125 50.25H56.1375C56.1485 50.3235 56.1625 50.3875 56.1719 50.4641C56.4459 52.4055 56.4459 54.3758 56.1719 56.3172C56.1719 56.3781 56.1516 56.4391 56.1438 56.5H45.8125C45.5034 56.5001 45.2012 56.5919 44.9442 56.7638C44.6872 56.9356 44.487 57.1799 44.3689 57.4656C44.2508 57.7514 44.2201 58.0657 44.2807 58.3689C44.3413 58.672 44.4905 58.9504 44.7094 59.1688L52.0079 66.4547C51.9625 66.5141 51.925 66.575 51.8782 66.6359C50.6964 68.1964 49.3052 69.5866 47.7438 70.7672C47.6891 70.8078 47.6329 70.8422 47.5875 70.8828L40.3016 63.5844C40.0837 63.3628 39.8046 63.2112 39.5001 63.149C39.1956 63.0869 38.8795 63.1169 38.5921 63.2353C38.3048 63.3537 38.0593 63.5552 37.887 63.8139C37.7147 64.0725 37.6235 64.3767 37.625 64.6875V75.011C37.55 75.0219 37.486 75.0359 37.4094 75.0453C35.4686 75.3203 33.4987 75.3203 31.5579 75.0453C31.4954 75.0453 31.4375 75.0234 31.375 75.0156V64.6875C31.375 64.3783 31.2832 64.0761 31.1113 63.8191C30.9394 63.5622 30.6951 63.3619 30.4094 63.2438C30.1237 63.1257 29.8094 63.0951 29.5062 63.1557C29.203 63.2163 28.9246 63.3655 28.7063 63.5844L21.4219 70.8828C21.361 70.8375 21.3 70.8016 21.2407 70.7547C19.6797 69.5724 18.289 68.1806 17.1079 66.6188C17.0657 66.5656 17.0313 66.5078 16.9907 66.4625L24.2907 59.1766C24.5123 58.9587 24.6639 58.6796 24.726 58.3751C24.7882 58.0706 24.7582 57.7545 24.6397 57.4671C24.5213 57.1798 24.3199 56.9343 24.0612 56.762C23.8025 56.5897 23.4983 56.4985 23.1875 56.5H12.8625C12.8516 56.4266 12.8375 56.3625 12.8282 56.2859C12.5542 54.3445 12.5542 52.3743 12.8282 50.4328C12.8282 50.3719 12.8485 50.311 12.8563 50.25H23.1875C23.4967 50.2499 23.7989 50.1582 24.0559 49.9863C24.3129 49.8144 24.5131 49.5701 24.6312 49.2844C24.7493 48.9987 24.78 48.6843 24.7194 48.3812C24.6588 48.078 24.5096 47.7996 24.2907 47.5813L17 40.2953C17.0454 40.236 17.0829 40.175 17.1297 40.1141C18.3091 38.5541 19.6977 37.164 21.2563 35.9828ZM15.2625 42.9844L19.411 47.125H13.5375C13.9653 45.688 14.5435 44.3001 15.2625 42.9844Z" fill="black"/>
<path d="M34.5 58.0625C35.4271 58.0625 36.3334 57.7876 37.1042 57.2725C37.8751 56.7574 38.4759 56.0254 38.8307 55.1688C39.1855 54.3123 39.2783 53.3698 39.0974 52.4605C38.9166 51.5512 38.4701 50.716 37.8146 50.0604C37.159 49.4049 36.3238 48.9584 35.4145 48.7776C34.5052 48.5967 33.5627 48.6895 32.7062 49.0443C31.8496 49.3991 31.1176 49.9999 30.6025 50.7708C30.0874 51.5416 29.8125 52.4479 29.8125 53.375C29.8125 54.6182 30.3064 55.8105 31.1854 56.6896C32.0645 57.5686 33.2568 58.0625 34.5 58.0625ZM34.5 51.8125C34.809 51.8125 35.1111 51.9041 35.3681 52.0758C35.625 52.2475 35.8253 52.4915 35.9436 52.7771C36.0618 53.0626 36.0928 53.3767 36.0325 53.6798C35.9722 53.9829 35.8234 54.2613 35.6049 54.4799C35.3863 54.6984 35.1079 54.8472 34.8048 54.9075C34.5017 54.9678 34.1876 54.9368 33.9021 54.8186C33.6165 54.7003 33.3725 54.5 33.2008 54.2431C33.0291 53.9861 32.9375 53.684 32.9375 53.375C32.9375 52.9606 33.1021 52.5632 33.3951 52.2701C33.6882 51.9771 34.0856 51.8125 34.5 51.8125ZM32.9375 44H36.0625V47.125H32.9375V44ZM32.9375 59.625H36.0625V62.75H32.9375V59.625ZM40.75 51.8125H43.875V54.9375H40.75V51.8125ZM25.125 51.8125H28.25V54.9375H25.125V51.8125Z" fill="black"/>
<path d="M34.5 87.75C34.9687 87.75 35.4203 87.7328 35.864 87.7094C35.9291 87.7277 35.9954 87.7413 36.0625 87.75H61.0625V84.625H48.8297C49.2875 84.4141 49.7359 84.1844 50.1828 83.9547C50.3047 83.8922 50.4297 83.8359 50.55 83.7734C51.3109 83.3719 52.0515 82.9359 52.7781 82.4797C52.9719 82.3594 53.1609 82.2313 53.3515 82.1063C53.9255 81.7302 54.4864 81.3375 55.0344 80.9281C55.2062 80.8 55.3812 80.6766 55.55 80.5453C55.8297 80.3281 56.1015 80.1031 56.375 79.8781V79.9375H90.75C90.75 81.1807 90.2561 82.373 89.377 83.2521C88.498 84.1311 87.3057 84.625 86.0625 84.625H70.4375V87.75H86.0625C88.1337 87.7475 90.1194 86.9236 91.584 85.459C93.0486 83.9944 93.8725 82.0087 93.875 79.9375V64.3125C93.8725 62.2413 93.0486 60.2556 91.584 58.791C90.1194 57.3264 88.1337 56.5025 86.0625 56.5H86.0219C87.0559 55.1556 87.6192 53.5085 87.625 51.8125V36.1875C87.6192 34.4915 87.0559 32.8444 86.0219 31.5H86.0625C88.1337 31.4975 90.1194 30.6736 91.584 29.209C93.0486 27.7444 93.8725 25.7587 93.875 23.6875V8.0625C93.8725 5.99126 93.0486 4.00556 91.584 2.54097C90.1194 1.07638 88.1337 0.252481 86.0625 0.25H40.75C38.6787 0.252481 36.693 1.07638 35.2285 2.54097C33.7639 4.00556 32.94 5.99126 32.9375 8.0625V19.0391C23.979 19.4661 15.5421 23.3774 9.42735 29.9383C3.31256 36.4993 0.00409516 45.1902 0.207991 54.1566C0.411887 63.1229 4.11199 71.6545 10.5187 77.9307C16.9254 84.2069 25.5314 87.7307 34.5 87.75ZM43.4328 20.2031C42.8328 20.0469 42.2328 19.8906 41.6234 19.7562C41.175 19.6609 40.7203 19.5891 40.2656 19.5125C39.666 19.4085 39.0637 19.3205 38.4594 19.2484C37.9906 19.1953 37.5219 19.1578 37.0531 19.1219C36.7234 19.0984 36.4 19.05 36.0703 19.0344V17.4375H90.75V20.5625H44.7484L44.7078 20.5516C44.2875 20.4203 43.8594 20.3172 43.4328 20.2031ZM68.2578 46.9219C68.1812 46.5187 68.0859 46.1219 67.9953 45.7234L67.9609 45.5672H84.5V48.6922H68.5297C68.4545 48.0988 68.3638 47.5074 68.2578 46.9188V46.9219ZM67.0844 42.4375C66.8932 41.8667 66.6848 41.3019 66.4594 40.7438L65.9906 39.5766C65.9515 39.4906 65.9203 39.4 65.8812 39.3125H84.5V42.4375H67.0844ZM64.5984 69.975C64.6765 69.8328 64.7625 69.6969 64.839 69.5531C65.2057 68.8625 65.55 68.1573 65.8719 67.4375H90.75V70.5625H64.264C64.3765 70.3672 64.4906 70.1719 64.5984 69.975ZM59.6562 76.8125C59.7422 76.7203 59.8219 76.6203 59.9078 76.5266C60.4781 75.9016 61.0328 75.2609 61.5578 74.5938C61.6234 74.5094 61.6828 74.4203 61.7484 74.3359C61.9047 74.1234 62.0609 73.9047 62.2281 73.6875H90.75V76.8125H59.6562ZM90.75 64.3125H67.0906C67.1265 64.2078 67.1562 64.1016 67.1906 64C67.4594 63.1667 67.6963 62.325 67.9015 61.475C67.9484 61.2797 67.9859 61.0797 68.0281 60.8828C68.1219 60.4656 68.2203 60.0516 68.2984 59.6328H86.0625C87.3043 59.6328 88.4954 60.1256 89.3743 61.003C90.2531 61.8804 90.7479 63.0707 90.75 64.3125ZM68.7328 56.5C68.7406 56.4109 68.7328 56.3156 68.7453 56.2266C68.825 55.2891 68.875 54.3422 68.875 53.375C68.875 52.85 68.8312 52.3328 68.8078 51.8125H84.5C84.5 53.0557 84.0061 54.248 83.127 55.1271C82.248 56.0061 81.0557 56.5 79.8125 56.5H68.7328ZM84.5 36.1875H64.2812C63.9906 35.6875 63.6687 35.2031 63.3515 34.7156C63.1953 34.4766 63.0578 34.2281 62.8953 33.9922C62.3077 33.134 61.6821 32.3024 61.0203 31.5H79.8125C81.0557 31.5 82.248 31.9939 83.127 32.8729C84.0061 33.752 84.5 34.9443 84.5 36.1875ZM86.0625 28.375H58.0844C57.6609 27.975 57.2125 27.6156 56.7734 27.2406C56.4781 26.9875 56.1937 26.7203 55.8922 26.4781C55.2233 25.9511 54.5353 25.4487 53.8297 24.9719C53.6515 24.85 53.4828 24.7109 53.3031 24.5922C52.8094 24.2688 52.2922 23.9844 51.7828 23.6875H90.75C90.75 24.9307 90.2561 26.123 89.377 27.0021C88.498 27.8811 87.3057 28.375 86.0625 28.375ZM40.75 3.375H86.0625C87.3057 3.375 88.498 3.86886 89.377 4.74794C90.2561 5.62701 90.75 6.8193 90.75 8.0625H70.4625V11.1875H90.75V14.3125H36.0625V11.1875H67.3125V8.0625H36.0625C36.0625 6.8193 36.5563 5.62701 37.4354 4.74794C38.3145 3.86886 39.5068 3.375 40.75 3.375ZM34.5 22.125C35.5281 22.125 36.5489 22.174 37.5625 22.2719C39.7059 22.4844 41.8214 22.919 43.875 23.5687V23.6875H44.2109C50.4731 25.7323 55.9284 29.7047 59.797 35.0367C63.6655 40.3688 65.7491 46.7874 65.75 53.375C65.7535 54.8702 65.6438 56.3635 65.4219 57.8422C65.2906 58.7672 65.1198 59.6776 64.9094 60.5734C63.3496 67.1768 59.6809 73.0922 54.4587 77.4241C49.2364 81.756 42.745 84.2685 35.9672 84.5813C35.4828 84.6109 34.9984 84.625 34.5 84.625C26.212 84.625 18.2634 81.3326 12.4029 75.4721C6.54239 69.6116 3.24998 61.663 3.24998 53.375C3.24998 45.087 6.54239 37.1384 12.4029 31.2779C18.2634 25.4174 26.212 22.125 34.5 22.125Z" fill="black"/>
<path d="M64.1875 84.625H67.3125V87.75H64.1875V84.625Z" fill="black"/>
</svg>
