<svg width="92" height="94" viewBox="0 0 92 94" fill="none" xmlns="http://www.w3.org/2000/svg">
<path fill-rule="evenodd" clip-rule="evenodd" d="M3.93157 65.1807L20.2152 90.9145L29.0859 85.3008L12.8029 59.567L3.93157 65.1807ZM41.996 69.3553L58.797 74.9818C59.4866 75.218 60.2166 75.313 60.9437 75.2611C61.6707 75.2093 62.3799 75.0117 63.029 74.6801C65.2769 73.5602 66.7365 71.3771 66.5056 68.884L83.4482 60.1055C84.2662 59.6754 85.2165 59.5702 86.1087 59.8111C86.5267 59.9246 86.9181 60.1199 87.2601 60.3857C87.602 60.6516 87.8879 60.9826 88.1009 61.3598C88.319 61.7462 88.4587 62.1718 88.5119 62.6123C88.5652 63.0528 88.5309 63.4995 88.4111 63.9268C88.1329 64.9309 87.605 65.4592 86.7587 66.007C84.4304 67.3514 58.8661 82.1105 58.8657 82.11C57.1062 83.2853 54.9675 83.7521 52.8783 83.417L31.996 80.401C31.7037 80.3588 31.4059 80.4223 31.1562 80.5801L29.6117 81.4809L18.3318 63.6545L33.1035 58.535C34.9201 57.8732 36.9102 57.8631 38.7335 58.5062L61.7351 66.209C62.1554 66.3507 62.5436 66.574 62.8773 66.8661C63.2111 67.1582 63.4839 67.5133 63.68 67.9111C64.5945 69.7471 63.6558 71.583 61.9179 72.448C61.5609 72.6321 61.1706 72.7425 60.7701 72.7727C60.3696 72.8029 59.9672 72.7523 59.5866 72.6238L42.7855 66.9969C42.4737 66.896 42.1346 66.9223 41.8421 67.07C41.5495 67.2177 41.3271 67.4749 41.2231 67.7857C41.1191 68.0965 41.1419 68.4358 41.2866 68.7298C41.4314 69.0239 41.6863 69.2489 41.996 69.3561V69.3553ZM16.9689 61.4979L32.296 56.1853C34.6299 55.3445 37.1817 55.3307 39.5245 56.1463L62.5245 63.849C63.8814 64.3022 65.0251 65.237 65.7392 66.4766L82.3085 57.8932C83.6827 57.1759 85.2772 57.0046 86.7724 57.4137C87.5055 57.613 88.1917 57.9559 88.7913 58.4225C89.3909 58.889 89.8918 59.47 90.2652 60.1316C91.0206 61.5586 91.2445 63.0191 90.8093 64.5898C90.6055 65.333 90.2569 66.0285 89.7835 66.6365C89.3101 67.2445 88.7212 67.753 88.0507 68.1328L60.2152 84.1996C57.9547 85.706 55.2103 86.3071 52.5271 85.8834L32.0722 82.9287L30.9454 83.5861L31.8556 85.0242C31.9426 85.1625 32.0016 85.3166 32.029 85.4776C32.0565 85.6387 32.052 85.8036 32.0157 85.9629C31.9794 86.1222 31.9121 86.2728 31.8176 86.406C31.7231 86.5393 31.6033 86.6527 31.465 86.7397L20.4921 93.6834C20.3538 93.7705 20.1998 93.8294 20.0387 93.8569C19.8776 93.8844 19.7127 93.8799 19.5534 93.8436C19.394 93.8073 19.2434 93.74 19.1101 93.6455C18.9768 93.551 18.8635 93.4311 18.7765 93.2928L1.16243 65.457C0.986769 65.1777 0.929238 64.8401 1.00249 64.5183C1.07575 64.1966 1.27378 63.9171 1.55306 63.7414L12.5269 56.7975C12.8062 56.6218 13.1438 56.5643 13.4655 56.6375C13.7872 56.7108 14.0666 56.9088 14.2423 57.1881L16.9697 61.498L16.9689 61.4979ZM59.4093 15.5391L61.5087 20.0078L66.4134 20.6244C66.6555 20.6538 66.8836 20.7535 67.0696 20.9112C67.2557 21.0689 67.3913 21.2776 67.4599 21.5116C67.5285 21.7457 67.527 21.9946 67.4555 22.2278C67.3841 22.4609 67.2459 22.668 67.0579 22.8234L63.5093 26.152L64.4388 31.0086C64.4833 31.2407 64.4607 31.4807 64.3739 31.7005C64.287 31.9203 64.1393 32.1109 63.9482 32.2499C63.757 32.3889 63.5303 32.4706 63.2944 32.4855C63.0585 32.5004 62.8233 32.4478 62.6161 32.334L58.2833 29.9492L53.9515 32.334C53.7443 32.4478 53.509 32.5003 53.2731 32.4854C53.0371 32.4704 52.8103 32.3886 52.6191 32.2495C52.428 32.1104 52.2804 31.9198 52.1935 31.6999C52.1067 31.48 52.0843 31.24 52.1288 31.0078L53.0583 26.152L49.4515 22.7689C49.2111 22.5427 49.0704 22.2303 49.0603 21.9004C49.0502 21.5704 49.1716 21.25 49.3978 21.0096C49.4478 20.9566 50.1535 20.6254 50.1533 20.6244L55.0579 20.0078L57.1574 15.5391C57.2575 15.325 57.4167 15.1439 57.6161 15.017C57.8155 14.8902 58.047 14.8228 58.2833 14.8228C58.5197 14.8228 58.7511 14.8902 58.9506 15.017C59.15 15.1439 59.3091 15.325 59.4093 15.5391ZM59.5511 21.6871L58.2833 18.9885L57.0597 21.5928C56.9803 21.8078 56.8432 21.9968 56.6634 22.1389C56.4836 22.281 56.2681 22.3708 56.0406 22.3984L53.0904 22.7695L55.2269 24.7734C55.3916 24.9165 55.5159 25.1002 55.5873 25.3064C55.6587 25.5125 55.6747 25.7338 55.6337 25.948L55.0738 28.8734L57.6714 27.4432C57.856 27.339 58.0641 27.2837 58.276 27.2825C58.4879 27.2813 58.6966 27.3343 58.8824 27.4363L61.4927 28.8734L60.9335 25.9479C60.894 25.7421 60.9072 25.5296 60.9718 25.3303C61.0364 25.1309 61.1504 24.9511 61.3031 24.8076L63.4759 22.7697L60.5267 22.3947C60.3175 22.3693 60.1182 22.291 59.9475 22.1673C59.7769 22.0436 59.6405 21.8785 59.5513 21.6875L59.5511 21.6871ZM58.2833 0.125C56.9638 0.125 55.924 0.795117 54.897 1.45703C54.3156 1.83184 53.7394 2.20332 53.2603 2.31641C52.7736 2.43047 52.0824 2.34434 51.3947 2.25781C50.2275 2.1123 49.0669 1.96777 47.9376 2.52148C46.8083 3.0752 46.2148 4.08984 45.623 5.1002C45.2837 5.6793 44.9452 6.25723 44.5753 6.5541C44.2054 6.85098 43.5677 7.05527 42.931 7.25879C41.8177 7.61445 40.7044 7.9707 39.9273 8.93848C39.1501 9.90625 39.0417 11.0709 38.9337 12.2369C38.8712 12.9115 38.8085 13.5873 38.597 14.0186C38.3908 14.4391 37.8978 14.9059 37.4027 15.375C36.539 16.193 35.6693 17.0166 35.3769 18.2637C35.0882 19.4941 35.4861 20.6195 35.888 21.7578C36.1253 22.4297 36.3648 23.1074 36.3648 23.6545C36.3648 24.2016 36.1253 24.8795 35.888 25.551C35.4861 26.6896 35.0882 27.8166 35.3769 29.0455C35.6699 30.2924 36.539 31.1158 37.4027 31.9342C37.898 32.4029 38.3908 32.8701 38.597 33.2904C38.8085 33.7217 38.8704 34.3975 38.9337 35.0719C39.0417 36.2381 39.1497 37.4018 39.9273 38.3707C40.4068 38.939 41.0261 39.3727 41.7242 39.6289L35.9609 49.7377C35.8298 49.9448 35.7627 50.1859 35.7681 50.4309C35.7734 50.6759 35.8508 50.9138 35.9908 51.115C36.1307 51.3162 36.3268 51.4716 36.5547 51.5619C36.7825 51.6521 37.0319 51.6731 37.2716 51.6223L43.3755 50.3299L45.3638 56.2154C45.4366 56.4465 45.5753 56.6512 45.7628 56.8045C45.9503 56.9579 46.1785 57.0531 46.4193 57.0786C46.6602 57.1041 46.9033 57.0587 47.1187 56.948C47.3342 56.8373 47.5126 56.6661 47.6322 56.4555L53.9939 45.2977C54.2845 45.4562 54.5904 45.6531 54.8974 45.8512C55.9243 46.5131 56.9642 47.1834 58.2837 47.1834C59.6033 47.1834 60.6433 46.5131 61.67 45.8512C61.9917 45.6437 62.3122 45.4373 62.6152 45.2754L68.9898 56.4555C69.1093 56.6661 69.2878 56.8373 69.5032 56.948C69.7186 57.0587 69.9617 57.1041 70.2026 57.0786C70.4435 57.0531 70.6717 56.9579 70.8592 56.8045C71.0467 56.6512 71.1853 56.4465 71.2581 56.2154L73.246 50.3299L79.3501 51.6223C79.5899 51.6731 79.8393 51.6522 80.0671 51.5619C80.295 51.4717 80.4911 51.3163 80.6311 51.1151C80.771 50.9139 80.8484 50.6759 80.8537 50.4308C80.859 50.1858 80.7918 49.9447 80.6607 49.7377L74.8866 39.6104C75.5678 39.3542 76.1716 38.9272 76.64 38.3703C77.4175 37.4014 77.5257 36.2377 77.6335 35.0715C77.696 34.3971 77.7587 33.7213 77.9702 33.29C78.1763 32.8697 78.6693 32.4027 79.1648 31.9334C80.0282 31.1158 80.8982 30.2928 81.1906 29.0451C81.479 27.8146 81.0812 26.6893 80.6792 25.5506C80.4419 24.8791 80.2027 24.201 80.2027 23.6541C80.2027 23.1072 80.4419 22.4293 80.6792 21.7574C81.0812 20.6191 81.479 19.493 81.1906 18.2633C80.8976 17.016 80.0282 16.193 79.1648 15.3746C78.6693 14.9059 78.1763 14.4387 77.9702 14.0182C77.7587 13.5869 77.6968 12.9113 77.6335 12.2367C77.5257 11.0707 77.4175 9.90703 76.64 8.93809C75.8624 7.96914 74.7495 7.61445 73.6363 7.2584C72.9995 7.05488 72.3626 6.85137 71.9921 6.55371C71.6216 6.25605 71.2835 5.67891 70.9445 5.0998C70.3527 4.08906 69.7591 3.07539 68.629 2.52168C67.499 1.96797 66.3396 2.11152 65.172 2.25801C64.4841 2.34355 63.7929 2.42969 63.3062 2.3166C62.8269 2.2043 62.2515 1.83301 61.6695 1.45723C60.6429 0.795117 59.6031 0.125 58.2833 0.125ZM72.5038 40.4553L77.154 48.6109L72.68 47.6656C72.3813 47.6023 72.0697 47.6511 71.8046 47.8027C71.5396 47.9543 71.3396 48.1981 71.2427 48.4877L69.7796 52.8184L65.3642 45.074C66.4665 45.2096 67.5617 45.3098 68.6284 44.7867C69.7585 44.2324 70.3521 43.2186 70.9439 42.2086C71.2829 41.6293 71.6214 41.0514 71.9915 40.7545C72.1493 40.6341 72.3214 40.5337 72.5038 40.4557V40.4553ZM51.2613 45.0664L46.8413 52.818L45.3784 48.4873C45.2816 48.1977 45.0815 47.9539 44.8164 47.8023C44.5513 47.6507 44.2397 47.6019 43.9409 47.6652L39.4671 48.6105L44.1054 40.4752C44.2721 40.5493 44.4295 40.6429 44.5742 40.7541C44.9441 41.051 45.2826 41.6289 45.6218 42.2082C46.2134 43.2188 46.8074 44.2326 47.937 44.7863C49.0228 45.3188 50.1378 45.2053 51.2601 45.0664H51.2613ZM60.3238 3.55234C59.6048 3.08926 58.8771 2.61992 58.2825 2.61992C57.688 2.61992 56.9603 3.08867 56.2413 3.55234C55.4781 4.04453 54.722 4.53184 53.8249 4.74238C52.9011 4.95898 51.9945 4.8459 51.0917 4.7334C50.2833 4.63281 49.4792 4.53281 49.0292 4.75293C48.5755 4.97539 48.1699 5.66738 47.7665 6.35684C47.3095 7.13711 46.8538 7.91563 46.1343 8.49316C45.4105 9.07383 44.5458 9.35019 43.6806 9.62598C42.9304 9.86562 42.1796 10.1057 41.8661 10.4961C41.5527 10.8865 41.482 11.6707 41.4087 12.4594C41.3251 13.3623 41.2411 14.2666 40.8283 15.1082C40.4181 15.9437 39.7697 16.5584 39.1171 17.1766C38.5236 17.7387 37.9257 18.3051 37.8031 18.827C37.6802 19.3518 37.9568 20.1355 38.2367 20.9273C38.5466 21.8053 38.8595 22.6908 38.8595 23.6525C38.8595 24.6143 38.547 25.5 38.2367 26.3775C37.9568 27.1697 37.6798 27.9533 37.8033 28.4781C37.9267 29.0029 38.5236 29.5664 39.1171 30.1287C39.7697 30.7467 40.4185 31.3611 40.8283 32.1969C41.2411 33.0383 41.3251 33.943 41.4087 34.8459C41.482 35.6342 41.5548 36.4213 41.8661 36.8092C42.2849 37.3307 45.2687 38.1178 46.1343 38.8127C46.8538 39.3904 47.3095 40.1688 47.7665 40.9492C48.1704 41.6387 48.5753 42.3303 49.0292 42.5527C49.4785 42.7736 50.2833 42.6734 51.0917 42.5723C51.9945 42.46 52.9015 42.3469 53.8249 42.5637C54.722 42.774 55.4781 43.2615 56.2413 43.7535C56.9603 44.2168 57.688 44.6861 58.2825 44.6861C58.8771 44.6861 59.605 44.2174 60.3238 43.7535C61.087 43.2613 61.8431 42.7738 62.7402 42.5637C63.6636 42.3469 64.5708 42.46 65.4745 42.5723C66.2829 42.673 67.0866 42.7732 67.537 42.5527C67.9907 42.3303 68.3964 41.6387 68.7995 40.9492C69.2566 40.168 69.7124 39.3904 70.432 38.8127C71.2827 38.1291 74.2839 37.3283 74.6999 36.8092C75.0124 36.4209 75.0843 35.6342 75.1574 34.8457C75.2409 33.943 75.3249 33.0385 75.7378 32.1969C76.148 31.3611 76.7964 30.7467 77.449 30.1287C78.0425 29.5664 78.6404 29 78.7632 28.4781C78.8861 27.9562 78.6093 27.1695 78.3296 26.3775C78.0197 25.5 77.7068 24.6141 77.7068 23.6525C77.7068 22.691 78.0193 21.8053 78.3296 20.9273C78.6093 20.1352 78.8859 19.3518 78.7632 18.827C78.6407 18.3051 78.0425 17.7387 77.449 17.1766C76.7964 16.5584 76.1474 15.9437 75.7378 15.1082C75.3249 14.2666 75.2409 13.3623 75.1574 12.4596C75.0843 11.6711 75.0115 10.884 74.6999 10.4961C74.3884 10.1082 73.6357 9.86562 72.8855 9.62598C72.0204 9.34941 71.1556 9.07305 70.432 8.49316C69.7124 7.91563 69.2566 7.13711 68.7995 6.35684C68.3958 5.66738 67.9907 4.97539 67.537 4.75293C67.0866 4.53203 66.2829 4.63242 65.4745 4.7334C64.5718 4.8459 63.6646 4.95898 62.7402 4.74238C61.8431 4.53184 61.087 4.04453 60.3238 3.55234ZM58.2833 8.9752C54.8872 8.97515 51.5962 10.1527 48.9709 12.3071C46.3457 14.4615 44.5487 17.4596 43.8861 20.7904C43.2235 24.1212 43.7364 27.5788 45.3373 30.5739C46.9381 33.569 49.528 35.9163 52.6656 37.216C55.8032 38.5156 59.2943 38.6872 62.5442 37.7013C65.794 36.7155 68.6015 34.6334 70.4883 31.8096C72.3751 28.9859 73.2244 25.5953 72.8915 22.2155C72.5587 18.8358 71.0642 15.676 68.6628 13.2746C67.3013 11.9095 65.6834 10.827 63.9021 10.0892C62.1208 9.35132 60.2113 8.97275 58.2833 8.9752ZM66.8984 15.0391C64.9052 13.0458 62.2825 11.8053 59.4773 11.5289C56.672 11.2525 53.8577 11.9574 51.5139 13.5234C49.1701 15.0895 47.4418 17.4197 46.6235 20.1172C45.8051 22.8147 45.9475 25.7124 47.0262 28.3167C48.1049 30.921 50.0532 33.0707 52.5392 34.3995C55.0252 35.7283 57.895 36.154 60.6597 35.6041C63.4244 35.0541 65.9129 33.5626 67.7011 31.3836C69.4894 29.2046 70.4667 26.4729 70.4667 23.6541C70.4688 22.0538 70.1546 20.469 69.5422 18.9905C68.9298 17.5121 68.0314 16.1692 66.8984 15.0391Z" fill="black"/>
</svg>
