<svg width="92" height="66" viewBox="0 0 92 66" fill="none" xmlns="http://www.w3.org/2000/svg">
<path d="M39.75 15.0094C40.875 15.1578 41.9 15.4234 42.8641 15.6656C44.6766 16.1188 46.2078 16.5203 48.0203 14.7078C48.2388 14.4894 48.5172 14.3406 48.8203 14.2803C49.1233 14.2201 49.4374 14.251 49.7229 14.3693C50.0084 14.4875 50.2524 14.6877 50.4241 14.9446C50.5958 15.2015 50.6874 15.5035 50.6875 15.8125C50.6875 17.1906 50.7922 17.9688 51.1437 18.4453C51.4609 18.8766 51.9484 18.9922 52.4687 19.2266C53.7141 19.7891 55.1922 20.5344 56.675 22.7578C56.8462 23.0146 56.9376 23.3164 56.9375 23.625V26.8484L53.8125 27.2391V24.1188C52.5656 22.4547 51.3125 22.1688 50.3797 21.7016C49.6844 21.3547 49.0969 20.9391 48.625 20.2953C48.2707 19.7982 48.0141 19.2382 47.8687 18.6453C46.4219 19.3219 45.0359 19.2938 43.5688 19.025C42.4094 18.8125 41.1813 18.3688 39.75 18.1469V15.0094Z" fill="black"/>
<path d="M56.9375 26.1187V28.3125H58.5C59.0922 28.3125 59.6328 28.6469 59.8969 29.1766L61.0672 31.5172C63.5406 31.9312 64.3531 33.8672 64.6188 35.0953L65.8469 35.7078C66.4954 34.898 67.2144 34.1471 67.9953 33.4641C68.9875 32.6141 70.1375 31.9125 71.3156 31.6047L72.3078 34.5781C71.4938 34.6797 70.7188 35.2453 70.0297 35.8359C68.6203 37.0437 67.6125 38.5547 67.6125 38.5547C67.4013 38.8715 67.0817 39.1004 66.7137 39.1982C66.3457 39.296 65.9547 39.2561 65.6141 39.0859L62.4891 37.5234C62.2291 37.3939 62.0105 37.1944 61.8578 36.9473C61.7051 36.7002 61.6245 36.4154 61.625 36.125C61.625 36.125 61.625 34.5625 60.0625 34.5625C59.7723 34.5627 59.4879 34.4819 59.2411 34.3293C58.9943 34.1766 58.795 33.9582 58.6656 33.6984L57.5344 31.4375H55.375C54.9606 31.4375 54.5632 31.2729 54.2701 30.9798C53.9771 30.6868 53.8125 30.2894 53.8125 29.875V26.4656L56.9375 26.1187Z" fill="black"/>
<path d="M70.425 31.9109C70.9721 31.6716 71.553 31.5188 72.1469 31.4578C73.4943 30.7448 74.7897 29.9376 76.0235 29.0422C77.0438 28.2891 78.061 27.4406 78.675 26.5578C78.7891 26.3578 78.9094 26.1547 79.036 25.9484C79.2472 25.6095 79.5801 25.3643 79.9664 25.2632C80.3528 25.162 80.7631 25.2126 81.1133 25.4046C81.4635 25.5966 81.7268 25.9154 81.8493 26.2955C81.9718 26.6756 81.9441 27.0881 81.7719 27.4484C81.6507 27.6899 81.514 27.9232 81.3625 28.1469C80 30.4531 79.4422 31.6688 79.4626 32.4875C79.4672 32.675 79.5844 32.7719 79.6938 32.8859C79.8438 33.0422 80.011 33.1922 80.186 33.3578C80.3954 33.5563 80.6094 33.7703 80.8219 34.0141C81.0141 33.9406 81.2079 33.8844 81.4016 33.8359C81.8766 33.7172 82.3704 33.7594 82.8438 33.4219C83.1266 33.2188 83.3813 32.8688 83.6657 32.3016C83.7948 32.0414 83.9939 31.8225 84.2407 31.6694C84.4875 31.5164 84.7721 31.4353 85.0625 31.4353C85.353 31.4353 85.6376 31.5164 85.8844 31.6694C86.1312 31.8225 86.3303 32.0414 86.4594 32.3016C87.0532 33.4891 87.4329 34.6734 87.8313 35.7L85.461 38.0703L85.4235 37.9953C85.1329 37.4172 84.8907 36.7391 84.6251 36.0156C84.111 36.3703 83.5985 36.5391 83.0985 36.6641C82.5704 36.7969 82.0079 36.7031 81.4797 37.2297C81.3048 37.4049 81.0907 37.536 80.8551 37.6121C80.6196 37.6883 80.3692 37.7073 80.1249 37.6676C79.8805 37.6279 79.649 37.5307 79.4496 37.3839C79.2503 37.2371 79.0887 37.045 78.9782 36.8234C78.5016 35.8734 77.8251 35.4641 77.3766 34.9844C76.7751 34.3438 76.3766 33.65 76.3407 32.6141C74.6672 33.6953 73.261 34.3969 73.261 34.3969C73.0443 34.5059 72.8051 34.5626 72.5625 34.5625C72.2344 34.5625 71.911 34.6438 71.5969 34.7813L70.425 31.9109Z" fill="black"/>
<path d="M87.5968 35.0781C87.7093 35.3844 87.8218 35.6812 87.9359 35.9641C88.3125 36.8937 88.6421 37.6875 89.7499 37.6875C90.122 37.6861 90.4824 37.8175 90.7662 38.0581C91.0501 38.2987 91.2387 38.6327 91.2982 39C91.3577 39.3673 91.2842 39.7438 91.0909 40.0618C90.8976 40.3797 90.5972 40.6182 90.2437 40.7344C87.9796 41.4891 87.5109 42.2219 86.9687 42.9766C86.4015 43.7641 85.7718 44.55 84.1984 45.3359C83.9052 45.4825 83.5733 45.5332 83.2497 45.4808C82.9261 45.4283 82.6272 45.2754 82.3953 45.0437C81.7874 44.4344 81.3624 44.1125 80.9296 44.1687C80.489 44.2266 80.1703 44.6031 79.8328 44.9594C79.3109 45.5094 78.8328 46.1281 78.3546 46.6062C78.136 46.8248 77.8575 46.9736 77.5543 47.0338C77.2511 47.094 76.9369 47.0629 76.6513 46.9445C76.3658 46.8261 76.1218 46.6256 75.9502 46.3685C75.7787 46.1114 75.6872 45.8091 75.6874 45.5C75.6874 43.7078 75.7718 42.525 75.3796 41.5375L78.0109 39.7844C78.3249 40.4031 78.5171 41.0734 78.6343 41.8531C79.3781 41.3187 80.2031 41.0094 81.1203 41.0406C81.8625 41.0656 82.7124 41.3187 83.6515 42.0062C84.2156 41.5562 84.4562 41.1 84.789 40.6562C85.139 40.1875 85.539 39.7109 86.1953 39.2312C85.895 38.8472 85.6362 38.4324 85.4234 37.9937C85.3041 37.7533 85.1941 37.5083 85.0937 37.2594L87.5968 35.0781Z" fill="black"/>
<path d="M61.8922 52.9125C61.2325 52.7174 60.6099 52.4138 60.05 52.0141C59.1422 51.3469 58.6406 50.5062 58.4875 49.6687C58.2578 48.4031 58.7625 46.9453 60.475 45.9156C61.1453 44.8031 61.9953 44.2 62.8781 43.9078C64.0625 43.5156 65.4016 43.7594 66.6047 44.3141C66.9828 42.8266 67.8312 41.3969 69.7094 40.9547C70.3766 39.2391 72.2875 37.6875 75.6875 37.6875C76.1016 37.6875 76.5 37.85 76.7922 38.1437C77.6047 38.9562 78.0922 39.7594 78.3844 40.7187L75.65 42.7641C75.5812 42.0219 75.4094 41.4141 75 40.8422C74.1937 40.9203 73.5594 41.1391 73.1094 41.4766C72.7734 41.7266 72.5625 42.0391 72.5625 42.375C72.5625 42.7894 72.3979 43.1868 72.1049 43.4799C71.8118 43.7729 71.4144 43.9375 71 43.9375C70.6297 43.9375 70.3406 43.9953 70.1266 44.1406C69.8047 44.3594 69.6828 44.7375 69.5937 45.1063C69.425 45.8 69.4375 46.5375 69.4375 47.0625C69.436 47.3708 69.3434 47.6718 69.1715 47.9278C68.9995 48.1837 68.7558 48.3832 68.471 48.5011C68.1861 48.6191 67.8728 48.6504 67.5702 48.591C67.2677 48.5315 66.9894 48.3841 66.7703 48.1672C66.2953 47.6922 65.6359 47.2094 64.9328 46.9609C64.5734 46.8359 64.2031 46.7578 63.8594 46.8719C63.5234 46.9844 63.2594 47.2875 63.0219 47.7609C62.8719 48.064 62.6265 48.3094 62.3234 48.4594C61.9234 48.6594 61.6203 48.8312 61.5625 49.0969C61.5234 49.2781 61.7375 49.3813 61.9391 49.5219C62.3719 49.825 62.9844 50.0344 63.7469 50.1281L61.8922 52.9125Z" fill="black"/>
<path d="M62.8984 49.9609C63.414 50.1094 64.0359 50.1891 64.75 50.1891C65.1644 50.1891 65.5618 50.3537 65.8548 50.6467C66.1478 50.9397 66.3125 51.3372 66.3125 51.7516C66.3125 52.2766 66.2999 53.0141 66.4687 53.7078C66.5578 54.0766 66.6796 54.4531 67.0015 54.6719C67.2156 54.8187 67.5046 54.875 67.875 54.875C68.1953 54.8747 68.508 54.973 68.7706 55.1563C69.0333 55.3397 69.2332 55.5994 69.3434 55.9002C69.4535 56.201 69.4686 56.5284 69.3865 56.838C69.3044 57.1476 69.1291 57.4246 68.8843 57.6313C65.9187 60.1438 65.0265 62.3328 64.7359 64.4625C64.6966 64.7509 64.5775 65.0225 64.3921 65.2469C64.2067 65.4712 63.9623 65.6393 63.6865 65.7322C63.4107 65.8251 63.1144 65.8392 62.8311 65.7727C62.5477 65.7063 62.2885 65.5621 62.0828 65.3563C61.1234 64.3969 59.8484 63.4375 59.0812 62.8875L55.9546 64.1375C55.7179 64.2329 55.4614 64.2687 55.2076 64.2418C54.9538 64.215 54.7105 64.1262 54.499 63.9834C54.2875 63.8405 54.1143 63.648 53.9946 63.4226C53.8749 63.1972 53.8124 62.9458 53.8125 62.6906C53.8125 61.1859 53.8609 59.6969 54.789 58.1984C54.1231 57.6881 53.3455 57.3433 52.5203 57.1922L53.5187 54.1953C54.8484 54.4844 56.2609 55.1156 58.0421 56.8984C58.1874 57.0434 58.3026 57.2156 58.3812 57.4052C58.4598 57.5947 58.5003 57.7979 58.5003 58.0031C58.5003 58.2083 58.4598 58.4115 58.3812 58.6011C58.3026 58.7906 58.1874 58.9628 58.0421 59.1078C57.7048 59.4364 57.4347 59.8275 57.2468 60.2594L58.7015 59.6781C58.9367 59.5835 59.1914 59.5477 59.4435 59.5739C59.6957 59.6 59.9376 59.6873 60.1484 59.8281C60.1484 59.8281 61.1296 60.4844 62.2718 61.3844C62.7687 60.0031 63.5859 58.5719 64.9593 57.0703C63.8109 56.1109 63.3984 54.5688 63.2578 53.2156C62.5375 53.1201 61.8332 52.9283 61.164 52.6453L62.8984 49.9609Z" fill="black"/>
<path d="M25.614 34.7844C26.2843 34.6375 26.8624 34.3875 27.4062 34.2312C28.4265 33.9406 29.3733 33.8562 30.3562 34.2203C31.2312 34.5453 32.1983 35.2625 33.2374 36.8203C33.4086 37.0771 33.5 37.3788 33.4999 37.6875C33.4999 38.3125 33.9062 38.675 34.2593 39.0125C34.7624 39.4969 35.2624 39.9344 35.5843 40.4C35.9655 40.95 36.1655 41.5437 36.1312 42.2172C36.1013 42.7049 35.9607 43.1794 35.7202 43.6047L45.3452 50.4797C45.4154 50.5298 45.4812 50.5857 45.5421 50.6469C48.8593 53.9641 50.6858 53.7937 52.5093 54.0266C53.2358 54.1187 53.9655 54.2531 54.7468 54.5687L53.3296 57.4047C52.5562 57.1328 51.8483 57.0984 51.1015 57.0141C49.1265 56.7953 46.9124 56.4031 43.4249 52.9484L32.5921 45.2109C32.4074 45.079 32.2536 44.9085 32.1415 44.7112C32.0294 44.5139 31.9616 44.2945 31.9428 44.0683C31.9241 43.8421 31.9549 43.6145 32.033 43.4014C32.1111 43.1884 32.2347 42.9948 32.3952 42.8344C32.6483 42.5812 32.864 42.2703 32.9608 42.1219C32.8748 42.0188 32.7841 41.9197 32.689 41.825C32.3827 41.5312 32.0374 41.2312 31.7202 40.8906C31.064 40.1859 30.5312 39.3406 30.4046 38.2141C29.9327 37.5469 29.5702 37.1922 29.1437 37.1156C28.5968 37.0172 28.0765 37.2922 27.4624 37.4906C26.6015 37.7641 25.6499 38.0266 24.5327 38.0266L25.614 34.7844Z" fill="black"/>
<path d="M7.74072 29.0969C8.07197 28.3906 8.41104 27.8422 8.75479 27.4344C9.36416 26.7125 10.0345 26.3344 10.7329 26.1937C11.3813 26.0641 12.0845 26.1375 12.8501 26.475C12.9251 25.9547 13.0595 25.4875 13.2345 25.0844C13.747 23.9156 14.6188 23.1937 15.6282 22.9547C16.811 22.6734 18.4704 23.0797 20.0595 24.975C22.2063 24.5719 23.5235 25.3422 24.2673 26.3437C24.9267 27.2344 25.1688 28.4547 25.011 29.6453C24.9329 30.2422 24.7548 30.8234 24.5032 31.3375C25.0501 32.1531 25.297 32.9781 25.297 33.7812C25.297 34.1406 25.2485 34.5016 25.1454 34.8641C25.5438 34.8141 25.911 34.7187 26.2548 34.6109L25.8485 37.9078C24.7782 38.0969 23.5517 38.1016 22.0673 37.6078C21.8147 37.5235 21.5878 37.3759 21.4082 37.1792C21.2286 36.9825 21.1023 36.7432 21.0413 36.4839C20.9802 36.2247 20.9865 35.9541 21.0594 35.698C21.1323 35.4418 21.2695 35.2085 21.4579 35.0203C21.8845 34.5937 22.172 34.2078 22.172 33.7812C22.172 33.3547 21.8845 32.9687 21.4579 32.5422C21.3127 32.3972 21.1975 32.225 21.1189 32.0355C21.0402 31.8459 20.9998 31.6427 20.9998 31.4375C20.9998 31.2323 21.0402 31.0291 21.1189 30.8395C21.1975 30.65 21.3127 30.4778 21.4579 30.3328C21.7595 30.0297 21.9173 29.5016 21.9329 28.9984C21.9454 28.6562 21.9329 28.2812 21.6485 28.1047C21.2814 27.875 20.7267 27.9672 19.9298 28.2328C19.6049 28.3407 19.2535 28.3389 18.9297 28.2277C18.6059 28.1165 18.3276 27.902 18.1376 27.6172C17.6688 26.9141 17.2204 26.4266 16.7782 26.1547C16.6157 26.0531 16.4798 25.9641 16.347 25.9953C16.122 26.0484 16.0735 26.3391 15.9954 26.6391C15.8079 27.3625 15.8782 28.3172 16.2329 29.3812C16.3425 29.7149 16.3366 30.0758 16.2162 30.4057C16.0957 30.7356 15.8678 31.0154 15.569 31.2C15.2702 31.3845 14.9179 31.4632 14.569 31.4232C14.2201 31.3833 13.8947 31.227 13.6454 30.9797C12.9735 30.3094 12.3954 29.7953 11.8704 29.4812C11.6642 29.3578 11.511 29.225 11.3454 29.2594C11.1923 29.2906 11.1188 29.4641 10.9892 29.6547C10.6923 30.0875 10.4251 30.6828 10.1501 31.4469L7.74072 29.0969Z" fill="black"/>
<path d="M10.5141 30.5313C10.3459 30.9124 10.1947 31.3008 10.0609 31.6953V37.6875C10.0615 37.925 10.0078 38.1596 9.90385 38.3732C9.79994 38.5868 9.64861 38.7738 9.46139 38.9201C9.27418 39.0663 9.05604 39.1678 8.82362 39.2168C8.5912 39.2659 8.35065 39.2612 8.12031 39.2031L1.87031 37.6406C1.53243 37.556 1.23251 37.3609 1.01821 37.0863C0.80391 36.8117 0.687509 36.4733 0.6875 36.125V8C0.6875 7.38281 1.05156 6.82344 1.61563 6.57188L15.6781 0.321878C15.9323 0.209165 16.212 0.166253 16.4882 0.197562C16.7645 0.228871 17.0275 0.333268 17.25 0.500002L29.75 9.875C29.9441 10.0205 30.1016 10.2093 30.21 10.4262C30.3185 10.6432 30.375 10.8824 30.375 11.125C30.375 11.2391 30.4625 11.3594 30.5391 11.5094C30.7156 11.8531 30.9672 12.2234 31.2578 12.6078C32.0313 13.6281 33.0609 14.7109 33.9031 15.5656C36.9172 14.5813 39.2734 14.8422 41.3125 15.2906V18.4734C39.3828 17.9891 37.1188 17.6109 34.0781 18.825C33.7948 18.9387 33.4843 18.9668 33.1851 18.9057C32.886 18.8446 32.6114 18.697 32.3953 18.4813C31.2437 17.3281 29.2937 15.3609 28.2219 13.725C27.8658 13.1976 27.587 12.622 27.3937 12.0156L16.1094 3.55L3.8125 9.01563V34.9063L6.9375 35.6875V31.4375C6.93687 31.2698 6.96325 31.1031 7.01563 30.9438C7.28443 30.1052 7.62582 29.2917 8.03594 28.5125L10.5141 30.5313Z" fill="black"/>
</svg>
