<svg width="100" height="100" viewBox="0 0 100 100" fill="none" xmlns="http://www.w3.org/2000/svg">
<g clip-path="url(#clip0_1_31)">
<path d="M95.5217 83.7317C96.269 82.6308 96.6679 81.3306 96.6667 80C96.6667 76.3233 93.6767 73.3333 90 73.3333C86.3233 73.3333 83.3333 76.3233 83.3333 80C83.3333 81.3817 83.7567 82.6667 84.4783 83.7317C83.5356 84.0618 82.6793 84.6 81.973 85.3063C81.2667 86.0127 80.7285 86.8689 80.3983 87.8117C79.9267 87.4917 79.4017 87.2567 78.8533 87.065C79.6019 85.9646 80.0015 84.6642 80 83.3333C80 79.6567 77.01 76.6667 73.3333 76.6667C69.6567 76.6667 66.6667 79.6567 66.6667 83.3333C66.6667 84.715 67.09 86 67.8117 87.065C67.265 87.2567 66.7383 87.4917 66.2667 87.8117C65.9365 86.8689 65.3983 86.0127 64.692 85.3063C63.9857 84.6 63.1294 84.0618 62.1867 83.7317C62.9352 82.6313 63.3348 81.3309 63.3333 80C63.3333 76.3233 60.3433 73.3333 56.6667 73.3333C52.99 73.3333 50 76.3233 50 80C50 81.3817 50.4233 82.6667 51.145 83.7317C48.5467 84.6433 46.6667 87.0933 46.6667 90V95C46.6667 95.9217 47.4117 96.6667 48.3333 96.6667H63.3333V98.3333C63.3333 99.255 64.0783 100 65 100H81.6667C82.5883 100 83.3333 99.255 83.3333 98.3333V96.6667H98.3333C99.255 96.6667 100 95.9217 100 95V90C100 87.0933 98.12 84.6433 95.5217 83.7317ZM56.6667 76.6667C58.505 76.6667 60 78.1617 60 80C60 81.8383 58.505 83.3333 56.6667 83.3333C54.8283 83.3333 53.3333 81.8383 53.3333 80C53.3333 78.1617 54.8283 76.6667 56.6667 76.6667ZM63.3333 93.3333H50V90C50 88.1617 51.495 86.6667 53.3333 86.6667H60C61.8383 86.6667 63.3333 88.1617 63.3333 90V93.3333ZM73.3333 80C75.1717 80 76.6667 81.495 76.6667 83.3333C76.6667 85.1717 75.1717 86.6667 73.3333 86.6667C71.495 86.6667 70 85.1717 70 83.3333C70 81.495 71.495 80 73.3333 80ZM80 95V96.6667H66.6667V93.3333C66.6667 91.495 68.1617 90 70 90H76.6667C78.505 90 80 91.495 80 93.3333V95ZM90 76.6667C91.8383 76.6667 93.3333 78.1617 93.3333 80C93.3333 81.8383 91.8383 83.3333 90 83.3333C88.1617 83.3333 86.6667 81.8383 86.6667 80C86.6667 78.1617 88.1617 76.6667 90 76.6667ZM96.6667 93.3333H83.3333V90C83.3333 88.1617 84.8283 86.6667 86.6667 86.6667H93.3333C95.1717 86.6667 96.6667 88.1617 96.6667 90V93.3333ZM51.1783 53.8217L42.845 45.4883C42.6905 45.3332 42.5069 45.2102 42.3046 45.1264C42.1024 45.0426 41.8856 44.9996 41.6667 45H33.3333V36.6667C33.3333 35.745 32.5883 35 31.6667 35H1.66667C0.745 35 0 35.745 0 36.6667V70C0 70.9217 0.745 71.6667 1.66667 71.6667H6.90333C7.64833 74.535 10.235 76.6667 13.3333 76.6667C16.4317 76.6667 19.0183 74.535 19.7633 71.6667H33.57C34.315 74.535 36.9017 76.6667 40 76.6667C43.0983 76.6667 45.685 74.535 46.43 71.6667H50C50.9217 71.6667 51.6667 70.9217 51.6667 70V55C51.6667 54.5567 51.4917 54.1333 51.1783 53.8217ZM3.33333 38.3333H30V56.6667H3.33333V38.3333ZM13.3333 73.3333C11.495 73.3333 10 71.8383 10 70C10 68.1617 11.495 66.6667 13.3333 66.6667C15.1717 66.6667 16.6667 68.1617 16.6667 70C16.6667 71.8383 15.1717 73.3333 13.3333 73.3333ZM40 73.3333C38.1617 73.3333 36.6667 71.8383 36.6667 70C36.6667 68.1617 38.1617 66.6667 40 66.6667C41.8383 66.6667 43.3333 68.1617 43.3333 70C43.3333 71.8383 41.8383 73.3333 40 73.3333ZM48.3333 68.3333H46.455C46.3967 68.1067 46.3067 67.8933 46.225 67.675C46.185 67.5683 46.1583 67.4583 46.1133 67.3533C45.9555 66.9882 45.7653 66.6379 45.545 66.3067C45.4967 66.2333 45.435 66.17 45.3817 66.0983C45.2 65.8467 45.0067 65.6067 44.7917 65.3833C44.6933 65.2817 44.5867 65.1933 44.4833 65.0983C44.2917 64.9233 44.0967 64.7567 43.885 64.605C43.7617 64.515 43.635 64.4333 43.505 64.3533C43.2892 64.2198 43.0661 64.0985 42.8367 63.99C42.7 63.925 42.565 63.86 42.4217 63.8033C42.1667 63.7033 41.9017 63.6267 41.6333 63.5583C41.5033 63.525 41.38 63.4833 41.2483 63.4583C40.8433 63.3817 40.4283 63.3333 40 63.3333C39.5717 63.3333 39.1567 63.3817 38.75 63.46C38.6183 63.485 38.4933 63.5283 38.365 63.56C38.095 63.6283 37.8317 63.705 37.5767 63.805C37.435 63.8617 37.3 63.9267 37.1617 63.9917C36.9321 64.0999 36.709 64.2212 36.4933 64.355C36.3638 64.4344 36.237 64.5184 36.1133 64.6067C35.9046 64.7595 35.7048 64.9242 35.515 65.1C35.4117 65.195 35.305 65.2833 35.2067 65.385C34.9917 65.6083 34.7983 65.8483 34.6167 66.1C34.565 66.1717 34.5033 66.235 34.4533 66.3083C34.2328 66.6394 34.0426 66.9897 33.885 67.355C33.84 67.4583 33.8133 67.57 33.7733 67.6767C33.6917 67.8933 33.6017 68.1067 33.5433 68.335H19.7867C19.7283 68.1083 19.6383 67.895 19.5567 67.6767C19.5167 67.57 19.49 67.46 19.445 67.355C19.2871 66.9899 19.0969 66.6396 18.8767 66.3083C18.8283 66.235 18.7667 66.1717 18.7133 66.1C18.5317 65.8483 18.3383 65.6083 18.1233 65.385C18.025 65.2833 17.9183 65.195 17.815 65.1C17.6233 64.925 17.4283 64.7583 17.2167 64.6067C17.0933 64.5167 16.9667 64.435 16.8367 64.355C16.6209 64.2215 16.3977 64.1002 16.1683 63.9917C16.0317 63.9267 15.8967 63.8617 15.7533 63.805C15.4983 63.705 15.2333 63.6283 14.965 63.56C14.835 63.5267 14.7117 63.485 14.58 63.46C14.1767 63.3817 13.7617 63.3333 13.3333 63.3333C12.905 63.3333 12.49 63.3817 12.0833 63.46C11.9517 63.485 11.8267 63.5283 11.6983 63.56C11.4283 63.6283 11.165 63.705 10.91 63.805C10.7683 63.8617 10.6333 63.9267 10.495 63.9917C10.2654 64.0999 10.0423 64.2212 9.82667 64.355C9.6971 64.4344 9.57036 64.5184 9.44667 64.6067C9.23795 64.7595 9.03818 64.9242 8.84833 65.1C8.745 65.195 8.63833 65.2833 8.54 65.385C8.325 65.6083 8.13167 65.8483 7.95 66.1C7.89833 66.1717 7.83667 66.235 7.78667 66.3083C7.56611 66.6394 7.37589 66.9897 7.21833 67.355C7.17333 67.4583 7.14667 67.57 7.10667 67.6767C7.02667 67.8933 6.93667 68.1067 6.87833 68.3333H3.33333V60H31.6667C32.5883 60 33.3333 59.255 33.3333 58.3333V48.3333H40.9767L48.3333 55.69V68.3333ZM98.3333 0H88.3333C87.4117 0 86.6667 0.745 86.6667 1.66667V20.7433L76.6667 26.9933V21.6667C76.6664 21.3691 76.5866 21.0769 76.4354 20.8206C76.2843 20.5642 76.0672 20.353 75.8069 20.2088C75.5466 20.0646 75.2524 19.9927 74.9549 20.0005C74.6574 20.0084 74.3674 20.0956 74.115 20.2533L63.3333 26.9933V21.6667C63.3331 21.3691 63.2533 21.0769 63.1021 20.8206C62.9509 20.5642 62.7339 20.353 62.4736 20.2088C62.2132 20.0646 61.9191 19.9927 61.6216 20.0005C61.324 20.0084 61.0341 20.0956 60.7817 20.2533L47.4483 28.5867C47.2092 28.7369 47.012 28.9454 46.8753 29.1926C46.7386 29.4398 46.6668 29.7175 46.6667 30V43.3333C46.6667 44.255 47.4117 45 48.3333 45H98.3333C99.255 45 100 44.255 100 43.3333V1.66667C100 0.745 99.255 0 98.3333 0ZM60 30V41.6667H50V30.925L60 24.675V30ZM73.3333 30V41.6667H63.3333V30.925L73.3333 24.675V30ZM86.6667 26.6667V41.6667H76.6667V30.925L86.6667 24.675V26.6667ZM96.6667 41.6667H90V28.3333H96.6667V41.6667ZM96.6667 25H90V3.33333H96.6667V25Z" fill="black"/>
<path d="M66.6667 33.3333H70V38.3333H66.6667V33.3333ZM80 33.3333H83.3333V38.3333H80V33.3333ZM53.3333 33.3333H56.6667V38.3333H53.3333V33.3333ZM89.4917 54.71C89.3248 55.7633 89.114 56.8092 88.86 57.845L92.0983 58.6367C92.3716 57.514 92.6001 56.3809 92.7833 55.24L89.4917 54.71ZM90 48.3333C90 49.4067 89.9583 50.4817 89.8733 51.53L93.1967 51.7967C93.2883 50.66 93.3333 49.4933 93.3333 48.3333H90ZM85.4883 66.8067C84.9964 67.7533 84.4654 68.6791 83.8967 69.5817L86.7183 71.355C87.3347 70.3765 87.9102 69.3729 88.4433 68.3467L85.4883 66.8067ZM87.9783 60.92C87.6416 61.9322 87.2652 62.9307 86.85 63.9133L89.92 65.2117C90.3708 64.1475 90.7783 63.0655 91.1417 61.9683L87.9783 60.92ZM21.5767 17.29C20.7063 18.0489 19.8657 18.8411 19.0567 19.665L21.4367 21.9983C22.184 21.2362 22.9613 20.5039 23.7667 19.8033L21.5767 17.29ZM63.8117 8.915L62.75 12.075C63.7608 12.4139 64.7572 12.7942 65.7367 13.215L67.0517 10.1517C65.9883 9.69699 64.9075 9.28445 63.8117 8.915ZM27.15 13.1733C26.1682 13.7843 25.2108 14.4337 24.28 15.12L26.2617 17.8017C27.1187 17.1673 28.0011 16.5679 28.9067 16.005L27.15 13.1733ZM12.73 27.8833C12.1382 28.8769 11.5867 29.8938 11.0767 30.9317L14.0683 32.4033C14.539 31.4465 15.0472 30.5085 15.5917 29.5917L12.73 27.8833ZM16.7317 22.2333C15.9905 23.1199 15.2849 24.0356 14.6167 24.9783L17.3383 26.905C17.9548 26.0337 18.6058 25.1875 19.29 24.3683L16.7317 22.2333ZM50.1883 6.66666L50.175 10C51.242 10.0046 52.3084 10.0513 53.3717 10.14L53.6517 6.82C52.4997 6.72261 51.3444 6.67146 50.1883 6.66666ZM57.09 7.245L56.5467 10.5333C57.605 10.7083 58.6583 10.925 59.6783 11.1817L60.485 7.94666C59.3633 7.66688 58.2307 7.4328 57.09 7.245ZM70.18 11.6433L68.6233 14.5933C69.5583 15.085 70.49 15.625 71.3933 16.1983L73.1767 13.3833C72.2014 12.7636 71.2017 12.1831 70.18 11.6433ZM46.7267 6.78666C45.5754 6.87473 44.4279 7.00649 43.2867 7.18166L43.7983 10.4767C44.8531 10.3129 45.9139 10.1905 46.9783 10.11L46.7267 6.78666ZM33.3 10.0017C32.2345 10.4485 31.187 10.9372 30.16 11.4667L31.6867 14.4283C32.6346 13.9402 33.6014 13.4899 34.585 13.0783L33.3 10.0017ZM39.8867 7.85333C38.7616 8.1219 37.6479 8.43605 36.5483 8.795L37.5833 11.9617C38.5963 11.6312 39.6221 11.3416 40.6583 11.0933L39.8867 7.85333ZM34.7833 87.4517L33.6083 90.57C34.6906 90.9787 35.7893 91.3424 36.9017 91.66L37.82 88.4567C36.7952 88.1611 35.7822 87.8258 34.7833 87.4517ZM29.005 84.7233L27.345 87.6133C28.348 88.1878 29.3733 88.7227 30.4183 89.2167L31.8417 86.2017C30.8767 85.7471 29.9304 85.2539 29.005 84.7233ZM40.9283 89.2133L40.27 92.4817C41.4029 92.71 42.5443 92.8935 43.6917 93.0317L44.0883 89.7217C43.0383 89.5967 41.9767 89.425 40.9283 89.2133ZM19.555 77.2L17.11 79.465C17.7267 80.1317 18.3683 80.78 19.0267 81.4083L21.325 78.9933C20.7167 78.4139 20.1264 77.8158 19.555 77.2ZM23.73 81.105L21.6333 83.6967C22.531 84.4238 23.4573 85.1149 24.41 85.7683L26.295 83.0217C25.416 82.4156 24.5603 81.7762 23.73 81.105Z" fill="black"/>
</g>
<defs>
<clipPath id="clip0_1_31">
<rect width="100" height="100" fill="white"/>
</clipPath>
</defs>
</svg>
