<svg width="100" height="84" viewBox="0 0 100 84" fill="none" xmlns="http://www.w3.org/2000/svg">
<path d="M95.51 74.7397H92.6799V52.6912C92.6799 52.4985 92.6419 52.3076 92.5682 52.1295C92.4944 51.9514 92.3863 51.7896 92.25 51.6533C92.1137 51.517 91.9519 51.4089 91.7738 51.3352C91.5957 51.2614 91.4049 51.2234 91.2121 51.2234C91.0194 51.2234 90.8285 51.2614 90.6504 51.3352C90.4723 51.4089 90.3105 51.517 90.1742 51.6533C90.0379 51.7896 89.9298 51.9514 89.8561 52.1295C89.7823 52.3076 89.7443 52.4985 89.7443 52.6912V74.7397H38.566V53.0627C38.566 52.6734 38.4114 52.3001 38.1361 52.0248C37.8609 51.7496 37.4875 51.5949 37.0982 51.5949H17.8121C17.4228 51.5949 17.0495 51.7496 16.7742 52.0248C16.499 52.3001 16.3443 52.6734 16.3443 53.0627V74.7397H9.38945V45.8879L89.7443 25.1977V46.8203C89.7443 47.0131 89.7823 47.2039 89.8561 47.382C89.9298 47.5601 90.0379 47.7219 90.1742 47.8582C90.3105 47.9945 90.4723 48.1026 90.6504 48.1764C90.8285 48.2501 91.0194 48.2881 91.2121 48.2881C91.4049 48.2881 91.5957 48.2501 91.7738 48.1764C91.9519 48.1026 92.1137 47.9945 92.25 47.8582C92.3863 47.7219 92.4944 47.5601 92.5682 47.382C92.6419 47.2039 92.6799 47.0131 92.6799 46.8203V23.3041C92.68 23.0802 92.6288 22.8592 92.5303 22.6581C92.4318 22.457 92.2885 22.2811 92.1116 22.1439C91.9346 22.0067 91.7285 21.9119 91.5092 21.8666C91.2899 21.8213 91.0631 21.8269 90.8463 21.8828L83.6686 23.7309L82.3039 8.60117L82.3037 8.5998L81.6738 1.61601C81.6409 1.25106 81.4727 0.911617 81.2022 0.664408C80.9317 0.417199 80.5785 0.280106 80.2121 0.280075H70.5219C70.1554 0.280106 69.8023 0.417199 69.5318 0.664408C69.2613 0.911617 69.0931 1.25106 69.0602 1.61601L68.4303 8.60019V8.60039L66.6709 28.1076L58.3301 30.2553L56.8621 13.9791V13.9783L56.2322 6.99433C56.1993 6.62938 56.0311 6.28994 55.7606 6.04273C55.4901 5.79552 55.1369 5.65843 54.7705 5.6584H45.0801C44.7136 5.65843 44.3605 5.79552 44.09 6.04273C43.8195 6.28994 43.6513 6.62938 43.6184 6.99433L42.9885 13.9781L42.9883 13.9795L41.1207 34.6867L32.9914 36.7799L31.4199 19.3576V19.3566L30.79 12.3728C30.7571 12.0079 30.5889 11.6685 30.3184 11.4212C30.0479 11.174 29.6948 11.0369 29.3283 11.0369H19.6383C19.2718 11.0369 18.9187 11.174 18.6482 11.4212C18.3777 11.6685 18.2095 12.0079 18.1766 12.3728L16.827 27.335C16.7938 27.7217 16.9152 28.1057 17.1646 28.4032C17.4139 28.7006 17.7709 28.8871 18.1574 28.922C18.544 28.9569 18.9286 28.8373 19.2272 28.5893C19.5257 28.3413 19.7139 27.9852 19.7506 27.5988L20.348 20.975H28.6189L30.1113 37.5219L18.5881 40.4889L19.2229 33.4521C19.256 33.0655 19.1346 32.6814 18.8852 32.384C18.6359 32.0865 18.2789 31.9 17.8924 31.8651C17.5058 31.8302 17.1212 31.9498 16.8226 32.1978C16.5241 32.4458 16.3359 32.8019 16.2992 33.1883L15.5707 41.2656L7.55664 43.3291C7.24138 43.4103 6.96206 43.594 6.76261 43.8513C6.56316 44.1086 6.45491 44.4248 6.45488 44.7504V74.7398H4.49004C2.01426 74.7396 0 76.7539 0 79.2297C0 81.7055 2.01426 83.7197 4.49004 83.7197H47.6076C47.8004 83.7197 47.9912 83.6818 48.1693 83.608C48.3474 83.5342 48.5092 83.4261 48.6455 83.2898C48.7818 83.1535 48.8899 82.9917 48.9637 82.8136C49.0374 82.6356 49.0754 82.4447 49.0754 82.252C49.0754 82.0592 49.0374 81.8683 48.9637 81.6903C48.8899 81.5122 48.7818 81.3504 48.6455 81.2141C48.5092 81.0778 48.3474 80.9697 48.1693 80.8959C47.9912 80.8221 47.8004 80.7842 47.6076 80.7842H4.49004C3.63281 80.7842 2.93535 80.0869 2.93535 79.2297C2.93535 78.3725 3.63262 77.675 4.49004 77.675H95.51C96.3561 77.675 97.0647 78.3836 97.0647 79.2297C97.0647 80.0758 96.3561 80.7842 95.51 80.7842H53.4785C53.2858 80.7842 53.0949 80.8221 52.9168 80.8959C52.7387 80.9697 52.5769 81.0778 52.4406 81.2141C52.3043 81.3504 52.1962 81.5122 52.1225 81.6903C52.0487 81.8683 52.0107 82.0592 52.0107 82.252C52.0107 82.4447 52.0487 82.6356 52.1225 82.8136C52.1962 82.9917 52.3043 83.1535 52.4406 83.2898C52.5769 83.4261 52.7387 83.5342 52.9168 83.608C53.0949 83.6818 53.2858 83.7197 53.4785 83.7197H95.51C97.9857 83.7197 100 81.7055 100 79.2297C100 76.7539 97.9857 74.7397 95.51 74.7397ZM20.6121 18.0391L20.9789 13.9721H27.9867L28.3535 18.0391H20.6121ZM78.8709 3.21562L79.2377 7.28261H71.4963L71.8631 3.21562H78.8709ZM71.2316 10.218H79.5025L80.7881 24.4725L69.6883 27.3305L71.2316 10.218ZM53.4289 8.59375L53.7957 12.6607H46.0541L46.4209 8.59375H53.4289ZM45.7893 15.5963H54.0604L55.4494 30.9969L44.1377 33.9096L45.7893 15.5963ZM19.2797 54.5305H35.6305V74.7398H19.2797V54.5305Z" fill="black"/>
<path d="M55.576 44.8559C55.576 44.4666 55.4213 44.0933 55.146 43.818C54.8708 43.5427 54.4975 43.3881 54.1082 43.3881H48.2465C47.8572 43.3881 47.4838 43.5427 47.2086 43.818C46.9333 44.0933 46.7787 44.4666 46.7787 44.8559V52.1758C46.7787 52.5651 46.9333 52.9384 47.2086 53.2137C47.4838 53.4889 47.8572 53.6436 48.2465 53.6436H54.1082C54.4975 53.6436 54.8708 53.4889 55.146 53.2137C55.4213 52.9384 55.576 52.5651 55.576 52.1758V44.8559ZM52.6406 50.7082H49.7144V46.3236H52.6406V50.7082ZM54.1082 58.3709H48.2465C47.8572 58.3709 47.4838 58.5255 47.2086 58.8008C46.9333 59.0761 46.7787 59.4494 46.7787 59.8387V67.1586C46.7787 67.5479 46.9333 67.9212 47.2086 68.1965C47.4838 68.4717 47.8572 68.6264 48.2465 68.6264H54.1082C54.4975 68.6264 54.8708 68.4717 55.146 68.1965C55.4213 67.9212 55.576 67.5479 55.576 67.1586V59.8387C55.576 59.4494 55.4213 59.0761 55.146 58.8008C54.8708 58.5255 54.4975 58.3709 54.1082 58.3709ZM52.6406 65.691H49.7144V61.3065H52.6406V65.691ZM70.4342 44.8559C70.4342 44.4666 70.2795 44.0933 70.0043 43.818C69.729 43.5427 69.3557 43.3881 68.9664 43.3881H63.1045C62.7152 43.3881 62.3419 43.5427 62.0666 43.818C61.7913 44.0933 61.6367 44.4666 61.6367 44.8559V52.1758C61.6367 52.5651 61.7913 52.9384 62.0666 53.2137C62.3419 53.4889 62.7152 53.6436 63.1045 53.6436H68.9664C69.3557 53.6436 69.729 53.4889 70.0043 53.2137C70.2795 52.9384 70.4342 52.5651 70.4342 52.1758V44.8559ZM67.4988 50.7082H64.5724V46.3236H67.4988V50.7082ZM68.9666 58.3709H63.1047C62.7154 58.3709 62.3421 58.5255 62.0668 58.8008C61.7915 59.0761 61.6369 59.4494 61.6369 59.8387V67.1586C61.6369 67.5479 61.7915 67.9212 62.0668 68.1965C62.3421 68.4717 62.7154 68.6264 63.1047 68.6264H68.9666C69.3559 68.6264 69.7292 68.4717 70.0044 68.1965C70.2797 67.9212 70.4343 67.5479 70.4343 67.1586V59.8387C70.4343 59.4494 70.2796 59.0761 70.0044 58.8009C69.7291 58.5256 69.3558 58.371 68.9666 58.3709ZM67.4988 65.691H64.5724V61.3065H67.4988V65.691ZM85.2924 44.8559C85.2924 44.4666 85.1377 44.0933 84.8625 43.818C84.5872 43.5427 84.2139 43.3881 83.8246 43.3881H77.9629C77.5736 43.3881 77.2003 43.5427 76.925 43.818C76.6497 44.0933 76.4951 44.4666 76.4951 44.8559V52.1758C76.4951 52.5651 76.6497 52.9384 76.925 53.2137C77.2003 53.4889 77.5736 53.6436 77.9629 53.6436H83.8246C84.2139 53.6436 84.5872 53.4889 84.8625 53.2137C85.1377 52.9384 85.2924 52.5651 85.2924 52.1758V44.8559ZM82.3568 50.7082H79.4306V46.3236H82.3568V50.7082ZM83.8246 58.3709H77.9629C77.5736 58.3709 77.2003 58.5255 76.925 58.8008C76.6497 59.0761 76.4951 59.4494 76.4951 59.8387V67.1586C76.4951 67.5479 76.6497 67.9212 76.925 68.1965C77.2003 68.4717 77.5736 68.6264 77.9629 68.6264H83.8246C84.2139 68.6264 84.5872 68.4717 84.8625 68.1965C85.1377 67.9212 85.2924 67.5479 85.2924 67.1586V59.8387C85.2924 59.4494 85.1377 59.0761 84.8625 58.8008C84.5872 58.5255 84.2139 58.3709 83.8246 58.3709ZM82.3568 65.691H79.4306V61.3065H82.3568V65.691Z" fill="black"/>
</svg>
